

<svg width="1em" height="1em" fill="currentColor" aria-hidden="true" focusable="false" class=""><use xlink:href="#iconcunru"></use></svg>

<svg id="iconcunru" viewBox="0 0 1024 1024"><path d="M294.852 200.906c1.482-13.788 11.482-18.567 22.408-10.295l87.595 65.812c20.49 61.33 73.768 106.165 138.071 116.19 64.304 10.027 128.863-16.436 167.307-68.577 84.231 47.28 142.978 129.233 160.374 223.723h29.816c15.583-1.03 30.448 6.638 38.555 19.889a41.286 41.286 0 0 1 0 43.131c-8.107 13.251-22.972 20.92-38.555 19.889H873.57c-13.152 98.66-71.539 185.734-158.152 235.856v80.151c0 4.876-1.95 9.551-5.424 12.999a18.589 18.589 0 0 1-13.095 5.384h-92.595c-10.227 0-18.519-8.23-18.519-18.383v-31.987a394.149 394.149 0 0 1-141.855 0v31.987c0 10.153-8.291 18.383-18.52 18.383h-92.594c-10.228 0-18.519-8.23-18.519-18.383v-80.15c-68.019-40.047-119.48-102.793-145.189-177.031h-49.26c-22.97-0.1-41.567-18.56-41.668-41.362V502.207a41.21 41.21 0 0 1 12.204-29.248c7.814-7.757 18.413-12.115 29.464-12.115h57.964c22.499-51.898 58.166-97.12 103.521-131.256zM565.96 78.18c59.746 0.176 108.111 48.612 108.199 108.358 0 43.842-26.418 83.363-66.929 100.125-40.51 16.763-87.13 7.463-118.107-23.56-30.977-31.024-40.209-77.657-23.387-118.142C482.56 104.475 522.12 78.116 565.96 78.18z"></path></svg>