<svg width="1em" height="1em" fill="currentColor" aria-hidden="true" focusable="false" class=""><use xlink:href="#iconjiedai"></use></svg>
<svg id="iconjiedai" viewBox="0 0 1024 1024"><path d="M524.464 557.902c119.325 25.338 170.852 28.153 170.852 28.153 17.176 27.612-4.972 72.548-44.52 84.46-39.55 11.802-184.977-1.409-222.831-7.04-18.306-2.706-20.679 18.3 1.017 39.09 23.164 22.306 82.149 41.038 126.33 53.599 64.07 18.191 154.92-8.23 154.92-8.23s126.104-66.592 207.914-84.458c81.923-17.758 74.24 49.268 74.24 49.268S839.5 807.922 791.815 832.285c-47.685 24.363-120.794 89.115-185.655 84.46-64.86-4.657-297.86-62.695-349.16-56.307-22.713 2.815-58.194 11.694-91.641 19.274-0.904 0.217-1.921 0.433-2.825 0.65-2.712 0.866-5.537 1.624-8.475 1.624-9.944 0-18.306-5.197-23.39-12.669-1.13-2.057-2.26-4.44-3.39-6.821-24.182-48.727-48.702-145.53-60.34-195.122-3.956-16.567 6.44-33.242 23.616-37.465 105.313-25.88 193.564-76.23 233.339-93.121 51.526-21.873 81.244-4.223 200.57 21.114z m121.023-446.378c104.73 0 189.63 84.9 189.63 189.63 0 104.73-84.9 189.63-189.63 189.63-104.73 0-189.63-84.9-189.63-189.63 0-104.73 84.9-189.63 189.63-189.63z m1.693 90.582v63.952c-45.896 7.16-115.132 40.707-115.132 110.181 27.94-18.193 102.349-35.018 115.132-36.234v59.35l115.132-98.625-115.132-98.624z"></path></svg>