<svg width="1em" height="1em" fill="currentColor" aria-hidden="true" focusable="false" class=""><use xlink:href="#icontixingshezhi"></use></svg>


<svg id="icontixingshezhi" viewBox="0 0 1024 1024"><path d="M558.922 104c48.049 0 87 38.951 87 87l-0.001 7.985 0.872 0.447a336.167 336.167 0 0 1 20.516 11.508l1.572 0.96c42.775 26.272 73.762 69.518 93.42 126.012 17.35 49.864 25.786 109.868 25.786 176.59 0 63.828 24.77 117.235 75.847 162.524l0.236 0.208 0.919 0.533c28.394 16.69 46.523 47.157 46.911 80.903v1.09c0 50.408-39.221 91.658-88.811 94.877l-1.014 0.057v0.146l-165.189-0.002-0.077 0.497c-10.619 64.894-66.608 114.551-134.39 115.647l-2.29 0.018c-68.808 0-125.941-50.042-136.68-115.665l-0.077-0.497-185.306 0.002v-0.414l-0.44-0.039c-47.61-4.642-84.925-44.41-85.713-93.055L112 759.76c0-35.026 19.124-66.605 48.948-83.158l0.556-0.306 1.402-1.259c49.066-44.395 73.134-96.544 73.625-158.593l0.007-1.942c0-66.722 8.437-126.726 25.787-176.59 19.658-56.494 50.645-99.74 93.42-126.012 14.579-8.954 29.059-16.532 43.447-22.714l0.86-0.368 0.017-0.69c1.5-46.243 39.087-83.364 85.515-84.116l1.439-0.012z m0 74h-71.9c-7.179 0-13 5.82-13 13v50.843l-26.04 8.075c-17.036 5.282-34.882 13.599-53.51 25.039-53.953 33.137-83.934 119.3-83.934 239.545 0 86.674-35.14 161.009-103.818 220.577l-3.89 3.374-4.664 2.184A21.087 21.087 0 0 0 186 759.76c0 11.644 9.432 21.08 21.062 21.08l198.845-0.001h56.931l-6.39 42.501a64.46 64.46 0 0 0-0.712 9.591c0 35.35 28.84 64.069 64.493 64.069 35.654 0 64.494-28.72 64.494-64.069 0-3.244-0.24-6.445-0.713-9.59l-6.39-42.502H816.938c11.63 0 21.062-9.435 21.062-21.08 0-8.077-4.558-15.313-11.657-18.875l-4.096-2.055-3.47-2.992c-69.248-59.696-104.69-134.29-104.69-221.335 0-120.245-29.98-206.408-83.934-239.545-11.857-7.282-23.61-13.299-35.258-18.071l-22.974-9.412V191c0-7.18-5.82-13-13-13z m-241.323-73.339c10.64 17.446 5.121 40.214-12.325 50.853-67.1 40.92-107.8 96.093-123.81 167.192-4.489 19.936-24.288 32.458-44.224 27.969-19.935-4.489-32.457-24.289-27.968-44.224 20.492-91.01 73.552-162.939 157.474-214.116 17.446-10.639 40.214-5.12 50.853 12.326z m389.8 0c10.639-17.446 33.407-22.965 50.853-12.326 83.921 51.177 136.982 123.106 157.474 214.116 4.49 19.935-8.033 39.735-27.968 44.224-19.936 4.489-39.736-8.033-44.224-27.969-16.01-71.1-56.71-126.273-123.81-167.192-17.446-10.639-22.965-33.407-12.326-50.853zM174.971 61.913c12.09 16.474 8.537 39.63-7.936 51.72-25.962 19.055-49.093 48.34-69.078 88.352-9.13 18.281-31.352 25.7-49.633 16.568-18.281-9.13-25.7-31.352-16.568-49.633 24.932-49.918 55.325-88.397 91.495-114.943 16.474-12.09 39.63-8.537 51.72 7.936z m675.047 0c12.09-16.473 35.246-20.027 51.72-7.936 36.17 26.546 66.563 65.025 91.495 114.943 9.131 18.28 1.713 40.503-16.568 49.633-18.28 9.131-40.502 1.713-49.633-16.568-19.985-40.012-43.116-69.297-69.077-88.351-16.474-12.09-20.028-35.247-7.937-51.72z"></path></svg>